<svg viewBox="0 0 100 100" xmlns="http://www.w3.org/2000/svg">
  <defs>
    <radialGradient id="spiderGradient" cx="50%" cy="50%" r="50%">
      <stop offset="0%" stopColor="#4dd0e1" />
      <stop offset="100%" stopColor="#00bcd4" />
    </radialGradient>
    <filter id="glow">
      <feGaussianBlur stdDeviation="1" result="coloredBlur"/>
      <feMerge> 
        <feMergeNode in="coloredBlur"/>
        <feMergeNode in="SourceGraphic"/>
      </feMerge>
    </filter>
  </defs>
  
  <!-- Spider body - geometric cyber style -->
  <g fill="none" stroke="url(#spiderGradient)" strokeWidth="2" filter="url(#glow)">
    <!-- Main body (hexagonal) -->
    <polygon points="50,35 60,42 60,58 50,65 40,58 40,42" />
    
    <!-- Head (smaller hexagon) -->
    <polygon points="50,25 56,28 56,37 50,40 44,37 44,28" />
    
    <!-- Legs - geometric angular design -->
    <!-- Front legs -->
    <path d="M44,30 L25,20 L15,15" strokeLinecap="round"/>
    <path d="M25,20 L20,25" strokeLinecap="round"/>
    <path d="M56,30 L75,20 L85,15" strokeLinecap="round"/>
    <path d="M75,20 L80,25" strokeLinecap="round"/>
    
    <!-- Middle legs -->
    <path d="M40,45 L20,40 L10,35" strokeLinecap="round"/>
    <path d="M20,40 L15,45" strokeLinecap="round"/>
    <path d="M60,45 L80,40 L90,35" strokeLinecap="round"/>
    <path d="M80,40 L85,45" strokeLinecap="round"/>
    
    <!-- Back legs -->
    <path d="M40,55 L20,60 L10,65" strokeLinecap="round"/>
    <path d="M20,60 L15,65" strokeLinecap="round"/>
    <path d="M60,55 L80,60 L90,65" strokeLinecap="round"/>
    <path d="M80,60 L85,65" strokeLinecap="round"/>
    
    <!-- Rear legs -->
    <path d="M45,62 L30,75 L25,85" strokeLinecap="round"/>
    <path d="M30,75 L25,80" strokeLinecap="round"/>
    <path d="M55,62 L70,75 L75,85" strokeLinecap="round"/>
    <path d="M70,75 L75,80" strokeLinecap="round"/>
    
    <!-- Eyes (glowing dots) -->
    <circle cx="47" cy="32" r="1.5" fill="#4dd0e1"/>
    <circle cx="53" cy="32" r="1.5" fill="#4dd0e1"/>
    
    <!-- Joint markers -->
    <circle cx="25" cy="20" r="2" fill="none"/>
    <circle cx="75" cy="20" r="2" fill="none"/>
    <circle cx="20" cy="40" r="2" fill="none"/>
    <circle cx="80" cy="40" r="2" fill="none"/>
    <circle cx="20" cy="60" r="2" fill="none"/>
    <circle cx="80" cy="60" r="2" fill="none"/>
    <circle cx="30" cy="75" r="2" fill="none"/>
    <circle cx="70" cy="75" r="2" fill="none"/>
  </g>
</svg>
